<svg id="Layer_1" data-name="Layer 1" xmlns="http://www.w3.org/2000/svg" xmlns:xlink="http://www.w3.org/1999/xlink" viewBox="0 0 78 105"><defs><style>.cls-1{fill:url(#linear-gradient);}</style><linearGradient id="linear-gradient" x1="4.46" y1="52.5" x2="73.54" y2="52.5" gradientUnits="userSpaceOnUse"><stop offset="0" stop-color="#f04"/><stop offset="1" stop-color="#f04"/></linearGradient></defs><title>foto1</title><path class="cls-1" d="M73.2,59.84,63.86,32.5a8.74,8.74,0,0,0-1-2.05L51.54,13.13A8.2,8.2,0,0,0,44.82,9.4H33.37a8.22,8.22,0,0,0-6.71,3.69L15.1,30.32a7.49,7.49,0,0,0-1,2.12L4.83,59.87a8.12,8.12,0,0,0,.27,5.58l6.41,17.19a7.85,7.85,0,0,0,3.36,4l12.46,7.83a8.42,8.42,0,0,0,4.06,1.17h15a8.42,8.42,0,0,0,4.07-1.17l12.62-7.69a8,8,0,0,0,3.36-4.1L72.9,65.41A8.39,8.39,0,0,0,73.2,59.84ZM60.71,37.74l4.63,13.64-.2.2-9.3-9.24a.63.63,0,0,1,0-.87l3.93-4a.64.64,0,0,1,.89.1l.08.13ZM35.35,53.59a.8.8,0,0,1,0,1.08l-8.66,8.66a.74.74,0,0,1-1.05,0l0,0L17,54.7a.74.74,0,0,1,0-1l0,0,8.8-8.52a.78.78,0,0,1,1.08,0ZM29.91,41.43a.94.94,0,0,1,.24-.57l8.29-8a.75.75,0,0,1,1.05,0l0,0,8.26,8.26h0a.88.88,0,0,1,.23.57.85.85,0,0,1-.23.54l-8.16,8.13a.77.77,0,0,1-.57.23.69.69,0,0,1-.54-.23L30.11,42a.84.84,0,0,1-.16-.54Zm0,25.09,8.67-8.63a.68.68,0,0,1,.53-.24h0a.78.78,0,0,1,.57.24l8.64,8.63a.82.82,0,0,1,0,1.11l-8.7,8.63a.74.74,0,0,1-1,0l0,0-8.66-8.63A.87.87,0,0,1,29.91,66.52ZM43,54.67a.74.74,0,0,1,0-1.05l0,0,8.16-8.16a.73.73,0,0,1,1,0l0,0,8.56,8.67a.79.79,0,0,1,0,1.07l-8.16,8.16a.73.73,0,0,1-1,0l0,0Zm7.85-33.25a.65.65,0,0,1,.54.34l6.38,9.77a.77.77,0,0,1,0,1l-5.44,5.44a.73.73,0,0,1-1,0l0,0L43,29.75a.74.74,0,0,1-.24-.57.65.65,0,0,1,.24-.54l7.25-7a.74.74,0,0,1,.5-.2Zm-20.45-5,.78-1.21a2.76,2.76,0,0,1,2.11-1.37H45a2.77,2.77,0,0,1,2.12,1.37l.9,1.38a.78.78,0,0,1,0,1l-7.92,7.72a1.16,1.16,0,0,1-.77.3,1.18,1.18,0,0,1-.78-.33l-7.92-7.9a.71.71,0,0,1-.34-.94h.1Zm-9.84,15L27,21.55a.77.77,0,0,1,1.21-.13l7.05,7.15a.89.89,0,0,1,.24.57.77.77,0,0,1-.24.54l-8.29,8a.74.74,0,0,1-1.05,0l0,0-5.34-5.4a.83.83,0,0,1-.1-.88Zm-3.19,6.35a.63.63,0,0,1,.82-.37.55.55,0,0,1,.22.14l3.87,3.86a.63.63,0,0,1,0,.87l-9.51,9.34v-.2ZM14.67,75.22a.82.82,0,0,1-.54.2H14a.73.73,0,0,1-.54-.47l-4-10.85a2.47,2.47,0,0,1,0-1.61V62a.75.75,0,0,1,.21-.34A46,46,0,0,0,13,58.29a.84.84,0,0,1,1.11,0l8.13,8.13a.69.69,0,0,1,.23.54.73.73,0,0,1-.23.57ZM28.1,88.08l-.27.34a.7.7,0,0,1-.64.33.9.9,0,0,1-.4,0l-9.17-5.57a2.71,2.71,0,0,1-1-1.18l-.33-.87a.76.76,0,0,1,.3-.88l.2-.2,9.44-9.37a.74.74,0,0,1,1,0l0,0,8.6,8.6a.75.75,0,0,1,0,1l0,0ZM45.93,90.8a.75.75,0,0,1-.7.5H32.9a.8.8,0,0,1-.74-.5.88.88,0,0,1,.17-.84l6.21-6.18a.66.66,0,0,1,.54-.23h0a.66.66,0,0,1,.54.23L45.83,90a.74.74,0,0,1,.2.84Zm16.32-9.64L62,82a2.51,2.51,0,0,1-1.08,1.15h-.16l-9,5.47a.9.9,0,0,1-.4,0,.71.71,0,0,1-.64-.34,1.57,1.57,0,0,0-.3-.33L43,80.56a.74.74,0,0,1,0-1l0,0,8.66-8.66a.77.77,0,0,1,1.07,0L62,80.09h.2a.73.73,0,0,1,.21,1l0,0ZM68.6,64.1,64.57,75a.78.78,0,0,1-.54.47h-.17a.78.78,0,0,1-.53-.2L55.7,67.63a.89.89,0,0,1,0-1.11l8.16-8.13a.78.78,0,0,1,1.08,0c.84.84,2.85,2.79,3.36,3.36a.89.89,0,0,1,.23.34l.17.47a2.61,2.61,0,0,1,0,1.54Z"/></svg>