<svg id="Layer_1" data-name="Layer 1" xmlns="http://www.w3.org/2000/svg" viewBox="0 0 636 105"><defs><style>.cls-1{fill:#c06;}</style></defs><title>logo.fucsia</title><rect class="cls-1" x="385.18" y="48.77" width="20.88" height="6.72"/><rect class="cls-1" x="385.18" y="32.08" width="20.88" height="6.72"/><polygon class="cls-1" points="130.7 32.62 130.7 39.33 117.04 39.33 117.04 48.46 129.5 48.46 129.5 55.17 117.04 55.17 117.04 66.04 131.09 66.04 131.09 72.75 110.25 72.75 110.25 32.62 130.7 32.62"/><polygon class="cls-1" points="156.44 32.62 156.44 66.04 171.85 66.04 171.85 72.75 149.57 72.75 149.57 32.62 156.44 32.62"/><rect class="cls-1" x="385.18" y="65.5" width="20.88" height="6.72"/><polygon class="cls-1" points="210.28 32.08 233.95 32.08 233.95 38.79 225.61 38.79 225.61 72.21 218.58 72.21 218.58 38.79 210.28 38.79 210.28 32.08"/><polygon class="cls-1" points="272.27 32.08 272.27 38.79 258.64 38.79 258.64 47.87 271.06 47.87 271.06 54.59 258.64 54.59 258.64 65.5 272.65 65.5 272.65 72.21 251.81 72.21 251.81 32.08 272.27 32.08"/><path class="cls-1" d="M305.07,58.55h-3.46V72.17h-6.87V32.08h11.88a9.62,9.62,0,0,1,9.66,9.58v7.26a9.84,9.84,0,0,1-4.46,8.19l6.29,15.06h-7.53Zm4.23-17.08a2.72,2.72,0,0,0-2.76-2.68h-4.93v13h4.89a2.73,2.73,0,0,0,2.8-2.64V41.47Z"/><path class="cls-1" d="M361.5,61.54a11.09,11.09,0,0,1-11,11.21.85.85,0,0,1-.16,0h-.23a11.36,11.36,0,0,1-11.29-11.29V42.71a11.33,11.33,0,0,1,11.29-11.22h.23a11.1,11.1,0,0,1,11.17,11q0,.42,0,.84h-6.9a4.67,4.67,0,0,0-4.12-5.15h-.15A4.23,4.23,0,0,0,346,42.32V61.81a4.27,4.27,0,0,0,4.3,4.23h.12a4.19,4.19,0,0,0,4.27-4.11V59.52h6.83Z"/><path class="cls-1" d="M438.23,59.88h-3.42V73.51H427.9V33.41h11.88A9.67,9.67,0,0,1,449.49,43v7.22A9.79,9.79,0,0,1,445,58.45l6.33,15.06h-7.57Zm4.23-17.08a2.71,2.71,0,0,0-2.75-2.68h-4.9v13h4.86a2.72,2.72,0,0,0,2.79-2.64V42.8Z"/><path class="cls-1" d="M521.12,61.54A11.18,11.18,0,0,1,510,72.75h-1a11.29,11.29,0,0,1-11.18-11.29V42.71A11.22,11.22,0,0,1,509,31.49h.89A11.19,11.19,0,0,1,521,42.71h0ZM514.29,42.4a4.31,4.31,0,0,0-4.43-4.19h-.62a4.33,4.33,0,0,0-4.46,4.19V61.81a4.38,4.38,0,0,0,4.46,4.27h.58a4.36,4.36,0,0,0,4.47-4.19Z"/><path class="cls-1" d="M545.38,32h20.88V61.65a11.26,11.26,0,0,1-11.14,11.07h-.74a11,11,0,0,1-11-11.07h0v-3.1h6.91v3.14a4.5,4.5,0,1,0,9,0V38.4H545.38Z"/><path class="cls-1" d="M611.75,61.54a11.16,11.16,0,0,1-11.14,11.21h-.89a11.29,11.29,0,0,1-11.18-11.29V42.71a11.22,11.22,0,0,1,11.18-11.22h.89a11.17,11.17,0,0,1,11.14,11.22h0ZM604.92,42.4a4.3,4.3,0,0,0-4.42-4.19h-.62a4.35,4.35,0,0,0-4.47,4.19V61.81a4.4,4.4,0,0,0,4.47,4.27h.58a4.35,4.35,0,0,0,4.46-4.19Z"/><path class="cls-1" d="M90.2,59.84,80.86,32.5a8.74,8.74,0,0,0-1-2.05L68.54,13.13A8.2,8.2,0,0,0,61.82,9.4H50.37a8.22,8.22,0,0,0-6.71,3.69L32.1,30.32a7.49,7.49,0,0,0-1,2.12L21.83,59.87a8.12,8.12,0,0,0,.27,5.58l6.41,17.19a7.85,7.85,0,0,0,3.36,4l12.46,7.83a8.42,8.42,0,0,0,4.06,1.17h15a8.42,8.42,0,0,0,4.07-1.17l12.62-7.69a8,8,0,0,0,3.36-4.1L89.9,65.41A8.39,8.39,0,0,0,90.2,59.84ZM77.71,37.74l4.63,13.64-.2.2-9.3-9.24a.63.63,0,0,1,0-.87l3.93-4a.64.64,0,0,1,.89.1l.08.13ZM52.35,53.59a.8.8,0,0,1,0,1.08l-8.66,8.66a.74.74,0,0,1-1,0l0,0L34,54.7a.74.74,0,0,1,0-1l0,0,8.8-8.52a.78.78,0,0,1,1.08,0ZM46.91,41.43a.94.94,0,0,1,.24-.57l8.29-8a.75.75,0,0,1,1.05,0l0,0,8.26,8.26h0a.88.88,0,0,1,.23.57.85.85,0,0,1-.23.54l-8.16,8.13a.77.77,0,0,1-.57.23.69.69,0,0,1-.54-.23L47.11,42a.84.84,0,0,1-.16-.54Zm0,25.09,8.67-8.63a.68.68,0,0,1,.53-.24h0a.78.78,0,0,1,.57.24l8.64,8.63a.82.82,0,0,1,0,1.11l-8.7,8.63a.74.74,0,0,1-1,0l0,0-8.66-8.63A.87.87,0,0,1,46.91,66.52ZM60,54.67a.74.74,0,0,1,0-1.05l0,0,8.16-8.16a.73.73,0,0,1,1,0l0,0,8.56,8.67a.79.79,0,0,1,0,1.07l-8.16,8.16a.73.73,0,0,1-1,0l0,0Zm7.85-33.25a.65.65,0,0,1,.54.34l6.38,9.77a.77.77,0,0,1,0,1l-5.44,5.44a.73.73,0,0,1-1,0l0,0L60,29.75a.74.74,0,0,1-.24-.57.65.65,0,0,1,.24-.54l7.25-7a.74.74,0,0,1,.5-.2Zm-20.45-5,.78-1.21a2.76,2.76,0,0,1,2.11-1.37H62a2.77,2.77,0,0,1,2.12,1.37l.9,1.38a.78.78,0,0,1,0,1l-7.92,7.72a1.16,1.16,0,0,1-.77.3,1.18,1.18,0,0,1-.78-.33l-7.92-7.9a.71.71,0,0,1-.34-.94h.1Zm-9.84,15L44,21.55a.77.77,0,0,1,1.21-.13l7,7.15a.89.89,0,0,1,.24.57.77.77,0,0,1-.24.54l-8.29,8a.74.74,0,0,1-1.05,0l0,0-5.34-5.4a.83.83,0,0,1-.1-.88Zm-3.19,6.35a.63.63,0,0,1,.82-.37.55.55,0,0,1,.22.14l3.87,3.86a.63.63,0,0,1,0,.87l-9.51,9.34v-.2ZM31.67,75.22a.82.82,0,0,1-.54.2H31a.73.73,0,0,1-.54-.47l-4-10.85a2.47,2.47,0,0,1,0-1.61V62a.75.75,0,0,1,.21-.34A46,46,0,0,0,30,58.29a.84.84,0,0,1,1.11,0l8.13,8.13a.69.69,0,0,1,.23.54.73.73,0,0,1-.23.57ZM45.1,88.08l-.27.34a.7.7,0,0,1-.64.33.9.9,0,0,1-.4,0l-9.17-5.57a2.71,2.71,0,0,1-1-1.18l-.33-.87a.76.76,0,0,1,.3-.88l.2-.2,9.44-9.37a.74.74,0,0,1,1,0l0,0,8.6,8.6a.75.75,0,0,1,0,1l0,0ZM62.93,90.8a.75.75,0,0,1-.7.5H49.9a.8.8,0,0,1-.74-.5.88.88,0,0,1,.17-.84l6.21-6.18a.66.66,0,0,1,.54-.23h0a.66.66,0,0,1,.54.23L62.83,90a.74.74,0,0,1,.2.84Zm16.32-9.64L79,82a2.51,2.51,0,0,1-1.08,1.15h-.16l-9,5.47a.9.9,0,0,1-.4,0,.71.71,0,0,1-.64-.34,1.57,1.57,0,0,0-.3-.33L60,80.56a.74.74,0,0,1,0-1l0,0,8.66-8.66a.77.77,0,0,1,1.07,0L79,80.09h.2a.73.73,0,0,1,.21,1l0,0ZM85.6,64.1,81.57,75a.78.78,0,0,1-.54.47h-.17a.78.78,0,0,1-.53-.2L72.7,67.63a.89.89,0,0,1,0-1.11l8.16-8.13a.78.78,0,0,1,1.08,0c.84.84,2.85,2.79,3.36,3.36a.89.89,0,0,1,.23.34l.17.47a2.61,2.61,0,0,1,0,1.54Z"/></svg>